<?xml version="1.0" encoding="UTF-8"?>
<svg id="a" data-name="레이어 1" xmlns="http://www.w3.org/2000/svg" width="424.12" height="119.56" xmlns:xlink="http://www.w3.org/1999/xlink" viewBox="0 0 424.12 119.56">
  <defs>
    <style>
      .c {
        fill: url(#b);
      }

      .d {
        stroke-linecap: round;
        stroke-linejoin: round;
      }

      .d, .e {
        fill: none;
        stroke: #1e1e1e;
        stroke-width: 9px;
      }

      .e {
        stroke-miterlimit: 10;
      }
    </style>
    <linearGradient id="b" data-name="무제 그라디언트 242" x1="320.32" y1="39.43" x2="405.82" y2="86.44" gradientUnits="userSpaceOnUse">
      <stop offset=".46" stop-color="#ffcd00"/>
      <stop offset=".9" stop-color="#ad7a32"/>
      <stop offset="1" stop-color="#99663f"/>
    </linearGradient>
  </defs>
  <path class="c" d="M423.98,43.4v-.14C422.32,18.75,404.66-.71,384.75.02l-38.16.55c-21.05.77-38.28,23.52-38.28,49.53h0c.39,16.2,7.34,30.25,17.61,38.39l-8.39,22.43c-2.08,5.56,3.07,11,7.2,7.59l27.51-22.73,34.79-1.27c22.17-.81,38.81-23.8,36.96-51.09Z"/>
  <g>
    <circle class="e" cx="364.52" cy="47.89" r="27.55"/>
    <polyline class="d" points="364.52 35.73 364.52 53.96 395.45 23.03"/>
  </g>
  <g>
    <path d="M50.98,61.78H0V12.92h50.98v48.86ZM82.33,107.63H11.04v-35.25h14.5v23.65h56.78v11.6ZM36.7,50.18v-25.66H14.28v25.66h22.42ZM78.98,81.3h-14.28V9.01h14.28v21.53h12.61v12.05h-12.61v38.71Z"/>
    <path d="M161.87,50.51c-5.73,1.04-12.16,1.73-19.3,2.06-7.14.33-14.39.5-21.75.5h-20.19V11.24h14.28v30.57h5.91c6.92,0,13.74-.13,20.47-.39,6.73-.26,13.59-.91,20.58-1.95v11.04ZM180.72,108.19h-70.39v-28.67h53.88v-6.58h-53.88v-11.16h68.16v28.22h-53.88v6.92h56.11v11.27ZM178.71,57.76h-14.28V9.01h14.28v14.61h12.61v11.83h-12.61v22.31Z"/>
    <path d="M251.67,12.92c-.22,7.96-1.88,14.97-4.96,21.03-3.09,6.06-7.03,11.32-11.83,15.79-4.8,4.46-10.15,8.16-16.06,11.1-5.91,2.94-11.88,5.23-17.9,6.86l-7.7-10.37c12.27-3.2,21.92-7.62,28.95-13.28,7.03-5.65,11.47-12.16,13.33-19.52h-34.92v-11.6h51.09ZM278.22,109.86h-14.28v-26.89h-56.11v-11.6h70.39v38.49ZM278.45,67.36h-14.28V9.01h14.28v23.2h12.61v12.05h-12.61v23.09Z"/>
  </g>
</svg>